<svg width="117" height="31" viewBox="0 0 117 31" fill="none" xmlns="http://www.w3.org/2000/svg">
<path d="M17.447 7.797V22.251C17.447 24.869 16.699 26.849 15.203 28.191C13.707 29.533 11.496 30.204 8.57 30.204C7.118 30.204 5.721 30.028 4.379 29.676C3.059 29.324 1.893 28.829 0.881 28.191L2.201 24.759C4.291 25.903 6.37 26.475 8.438 26.475C11.166 26.475 12.53 25.188 12.53 22.614V20.832C12.068 21.668 11.375 22.328 10.451 22.812C9.527 23.296 8.493 23.538 7.349 23.538C5.941 23.538 4.687 23.208 3.587 22.548C2.509 21.888 1.662 20.953 1.046 19.743C0.43 18.511 0.122 17.092 0.122 15.486C0.122 13.88 0.43 12.472 1.046 11.262C1.662 10.03 2.509 9.084 3.587 8.424C4.687 7.742 5.941 7.401 7.349 7.401C8.471 7.401 9.483 7.643 10.385 8.127C11.309 8.589 12.013 9.238 12.497 10.074V7.797H17.447ZM8.801 19.743C9.967 19.743 10.869 19.369 11.507 18.621C12.167 17.873 12.497 16.828 12.497 15.486C12.497 14.144 12.167 13.099 11.507 12.351C10.869 11.581 9.967 11.196 8.801 11.196C7.635 11.196 6.722 11.581 6.062 12.351C5.402 13.099 5.072 14.144 5.072 15.486C5.072 16.806 5.402 17.851 6.062 18.621C6.722 19.369 7.635 19.743 8.801 19.743ZM27.0692 24.264C25.3532 24.264 23.8462 23.923 22.5482 23.241C21.2502 22.537 20.2492 21.558 19.5452 20.304C18.8412 19.028 18.4892 17.532 18.4892 15.816C18.4892 14.1 18.8412 12.615 19.5452 11.361C20.2492 10.085 21.2502 9.106 22.5482 8.424C23.8462 7.742 25.3532 7.401 27.0692 7.401C28.7852 7.401 30.2922 7.742 31.5902 8.424C32.8882 9.106 33.8892 10.085 34.5932 11.361C35.2972 12.615 35.6492 14.1 35.6492 15.816C35.6492 17.532 35.2972 19.028 34.5932 20.304C33.8892 21.558 32.8882 22.537 31.5902 23.241C30.2922 23.923 28.7852 24.264 27.0692 24.264ZM27.0692 20.469C29.4892 20.469 30.6992 18.918 30.6992 15.816C30.6992 14.254 30.3802 13.088 29.7422 12.318C29.1262 11.548 28.2352 11.163 27.0692 11.163C24.6492 11.163 23.4392 12.714 23.4392 15.816C23.4392 18.918 24.6492 20.469 27.0692 20.469ZM52.0266 11.955C53.3686 12.351 54.4026 13.044 55.1286 14.034C55.8766 15.002 56.2506 16.201 56.2506 17.631C56.2506 19.589 55.5246 21.14 54.0726 22.284C52.6426 23.428 50.6626 24 48.1326 24H37.0776V0.734999H47.8026C50.2226 0.734999 52.1366 1.274 53.5446 2.352C54.9746 3.43 55.6896 4.904 55.6896 6.774C55.6896 7.984 55.3596 9.051 54.6996 9.975C54.0616 10.877 53.1706 11.537 52.0266 11.955ZM42.0936 10.206H46.9446C48.2646 10.206 49.2326 9.986 49.8486 9.546C50.4866 9.084 50.8056 8.391 50.8056 7.467C50.8056 6.499 50.4866 5.795 49.8486 5.355C49.2326 4.893 48.2646 4.662 46.9446 4.662H42.0936V10.206ZM47.5386 20.073C48.9026 20.073 49.8926 19.842 50.5086 19.38C51.1246 18.918 51.4326 18.17 51.4326 17.136C51.4326 16.102 51.1246 15.343 50.5086 14.859C49.8926 14.375 48.9026 14.133 47.5386 14.133H42.0936V20.073H47.5386ZM65.2215 24.264C63.5055 24.264 61.9985 23.923 60.7005 23.241C59.4025 22.537 58.4015 21.558 57.6975 20.304C56.9935 19.028 56.6415 17.532 56.6415 15.816C56.6415 14.1 56.9935 12.615 57.6975 11.361C58.4015 10.085 59.4025 9.106 60.7005 8.424C61.9985 7.742 63.5055 7.401 65.2215 7.401C66.9375 7.401 68.4445 7.742 69.7425 8.424C71.0405 9.106 72.0415 10.085 72.7455 11.361C73.4495 12.615 73.8015 14.1 73.8015 15.816C73.8015 17.532 73.4495 19.028 72.7455 20.304C72.0415 21.558 71.0405 22.537 69.7425 23.241C68.4445 23.923 66.9375 24.264 65.2215 24.264ZM65.2215 20.469C67.6415 20.469 68.8515 18.918 68.8515 15.816C68.8515 14.254 68.5325 13.088 67.8945 12.318C67.2785 11.548 66.3875 11.163 65.2215 11.163C62.8015 11.163 61.5915 12.714 61.5915 15.816C61.5915 18.918 62.8015 20.469 65.2215 20.469ZM82.6219 24.264C80.9059 24.264 79.3989 23.923 78.1009 23.241C76.8029 22.537 75.8019 21.558 75.0979 20.304C74.3939 19.028 74.0419 17.532 74.0419 15.816C74.0419 14.1 74.3939 12.615 75.0979 11.361C75.8019 10.085 76.8029 9.106 78.1009 8.424C79.3989 7.742 80.9059 7.401 82.6219 7.401C84.3379 7.401 85.8449 7.742 87.1429 8.424C88.4409 9.106 89.4419 10.085 90.1459 11.361C90.8499 12.615 91.2019 14.1 91.2019 15.816C91.2019 17.532 90.8499 19.028 90.1459 20.304C89.4419 21.558 88.4409 22.537 87.1429 23.241C85.8449 23.923 84.3379 24.264 82.6219 24.264ZM82.6219 20.469C85.0419 20.469 86.2519 18.918 86.2519 15.816C86.2519 14.254 85.9329 13.088 85.2949 12.318C84.6789 11.548 83.7879 11.163 82.6219 11.163C80.2019 11.163 78.9919 12.714 78.9919 15.816C78.9919 18.918 80.2019 20.469 82.6219 20.469ZM103.421 24L97.2173 16.773V24H92.2343V0.734999H97.2173V14.727L103.19 7.83H109.13L102.332 15.552L109.526 24H103.421ZM116.901 18.72V24H111.555V18.72H116.901Z" fill="#FFFDFD"/>
</svg>
